<svg width="100" height="100" viewBox="0 0 100 100" fill="none" xmlns="http://www.w3.org/2000/svg">
<rect width="100" height="100" fill="#FFFDFD"/>
<path d="M37 18.996C37 18.1675 36.3284 17.496 35.5 17.496C34.6716 17.496 34 18.1675 34 18.996L37 18.996ZM34.4393 82.0647C35.0251 82.6505 35.9749 82.6505 36.5607 82.0647L46.1066 72.5188C46.6924 71.933 46.6924 70.9832 46.1066 70.3974C45.5208 69.8116 44.5711 69.8116 43.9853 70.3974L35.5 78.8827L27.0147 70.3974C26.4289 69.8116 25.4792 69.8116 24.8934 70.3974C24.3076 70.9832 24.3076 71.933 24.8934 72.5188L34.4393 82.0647ZM34 18.996L34 81.004L37 81.004L37 18.996L34 18.996Z" fill="black"/>
<path d="M63.0607 17.9393C62.4749 17.3536 61.5251 17.3536 60.9393 17.9393L51.3934 27.4853C50.8076 28.0711 50.8076 29.0208 51.3934 29.6066C51.9792 30.1924 52.9289 30.1924 53.5147 29.6066L62 21.1213L70.4853 29.6066C71.0711 30.1924 72.0208 30.1924 72.6066 29.6066C73.1924 29.0208 73.1924 28.0711 72.6066 27.4853L63.0607 17.9393ZM60.5 81.0081C60.5 81.8365 61.1716 82.5081 62 82.5081C62.8284 82.5081 63.5 81.8365 63.5 81.0081L60.5 81.0081ZM60.5 19L60.5 81.0081L63.5 81.0081L63.5 19L60.5 19Z" fill="black"/>
<rect x="37" y="69" width="10" height="14" fill="#FFF8F8"/>
<rect x="50.5" y="17" width="10" height="14" fill="#FFF8F8"/>
</svg>
