<svg width="100" height="100" viewBox="0 0 100 100" fill="none" xmlns="http://www.w3.org/2000/svg">
<mask id="path-1-inside-1_5_2" fill="white">
<path fill-rule="evenodd" clip-rule="evenodd" d="M72.5918 73.2632L50.8367 73.2632H27.4082L27.4082 73.1876C17.2416 73.1876 9 64.8931 9 54.6613C9 44.4295 17.2416 36.135 27.4082 36.135C27.9723 36.135 28.5305 36.1605 29.0816 36.2105H30.7551C30.7551 25.0486 39.746 16 50.8367 16C61.9275 16 70.9184 25.0486 70.9184 36.2105H72.5799C72.5839 36.2105 72.5879 36.2105 72.5918 36.2105C72.5958 36.2105 72.5998 36.2105 72.6038 36.2105H74.2653V36.286C83.6476 37.137 91 45.0728 91 54.7368C91 64.4009 83.6476 72.3367 74.2653 73.1876V73.2632L72.5918 73.2632Z"/>
</mask>
<path fill-rule="evenodd" clip-rule="evenodd" d="M72.5918 73.2632L50.8367 73.2632H27.4082L27.4082 73.1876C17.2416 73.1876 9 64.8931 9 54.6613C9 44.4295 17.2416 36.135 27.4082 36.135C27.9723 36.135 28.5305 36.1605 29.0816 36.2105H30.7551C30.7551 25.0486 39.746 16 50.8367 16C61.9275 16 70.9184 25.0486 70.9184 36.2105H72.5799C72.5839 36.2105 72.5879 36.2105 72.5918 36.2105C72.5958 36.2105 72.5998 36.2105 72.6038 36.2105H74.2653V36.286C83.6476 37.137 91 45.0728 91 54.7368C91 64.4009 83.6476 72.3367 74.2653 73.1876V73.2632L72.5918 73.2632Z" fill="white"/>
<path d="M72.5918 73.2632L72.5918 70.2632L72.5918 70.2632L72.5918 73.2632ZM50.8367 73.2632L50.8367 76.2632L50.8367 76.2632L50.8367 73.2632ZM27.4082 73.2632L24.4082 73.2634L24.4084 76.2632H27.4082V73.2632ZM27.4082 73.1876L30.4082 73.1874L30.4079 70.1876H27.4082V73.1876ZM29.0816 36.2105L28.8107 39.1983L28.9459 39.2105H29.0816V36.2105ZM30.7551 36.2105V39.2105H33.7551V36.2105H30.7551ZM70.9184 36.2105H67.9184V39.2105H70.9184V36.2105ZM74.2653 36.2105H77.2653V33.2105H74.2653V36.2105ZM74.2653 36.286H71.2653V39.0263L73.9943 39.2738L74.2653 36.286ZM74.2653 73.1876L73.9943 70.1999L71.2653 70.4474V73.1876H74.2653ZM74.2653 73.2632L74.2653 76.2632L77.2653 76.2632V73.2632H74.2653ZM72.5918 70.2632L50.8367 70.2632L50.8367 76.2632L72.5918 76.2632L72.5918 70.2632ZM50.8367 70.2632H27.4082V76.2632H50.8367V70.2632ZM30.4082 73.2629L30.4082 73.1874L24.4082 73.1879L24.4082 73.2634L30.4082 73.2629ZM27.4082 70.1876C18.9165 70.1876 12 63.2544 12 54.6613H6C6 66.5318 15.5667 76.1876 27.4082 76.1876V70.1876ZM12 54.6613C12 46.0682 18.9165 39.135 27.4082 39.135V33.135C15.5667 33.135 6 42.7908 6 54.6613H12ZM27.4082 39.135C27.8817 39.135 28.3494 39.1564 28.8107 39.1983L29.3526 33.2228C28.7115 33.1646 28.0629 33.135 27.4082 33.135V39.135ZM29.0816 39.2105H30.7551V33.2105H29.0816V39.2105ZM33.7551 36.2105C33.7551 26.6873 41.4209 19 50.8367 19V13C38.071 13 27.7551 23.4098 27.7551 36.2105H33.7551ZM50.8367 19C60.2526 19 67.9184 26.6873 67.9184 36.2105H73.9184C73.9184 23.4098 63.6024 13 50.8367 13V19ZM70.9184 39.2105H72.5799V33.2105H70.9184V39.2105ZM72.5799 39.2105C72.5827 39.2105 72.5854 39.2105 72.5873 39.2105C72.5894 39.2105 72.5907 39.2105 72.5918 39.2105V33.2105C72.589 33.2105 72.5863 33.2105 72.5844 33.2105C72.5823 33.2105 72.581 33.2105 72.5799 33.2105V39.2105ZM72.5918 39.2105C72.593 39.2105 72.5943 39.2105 72.5964 39.2105C72.5982 39.2105 72.6009 39.2105 72.6038 39.2105V33.2105C72.6026 33.2105 72.6014 33.2105 72.5992 33.2105C72.5974 33.2105 72.5947 33.2105 72.5918 33.2105V39.2105ZM72.6038 39.2105H74.2653V33.2105H72.6038V39.2105ZM71.2653 36.2105V36.286H77.2653V36.2105H71.2653ZM73.9943 39.2738C81.8295 39.9844 88 46.623 88 54.7368H94C94 43.5226 85.4657 34.2895 74.5363 33.2983L73.9943 39.2738ZM88 54.7368C88 62.8507 81.8295 69.4893 73.9943 70.1999L74.5363 76.1754C85.4657 75.1841 94 65.9511 94 54.7368H88ZM71.2653 73.1876V73.2632H77.2653V73.1876H71.2653ZM74.2653 70.2632L72.5918 70.2632L72.5918 76.2632L74.2653 76.2632L74.2653 70.2632Z" fill="black" mask="url(#path-1-inside-1_5_2)"/>
<path d="M51.8974 43.9393C51.3116 43.3536 50.3619 43.3536 49.7761 43.9393L40.2301 53.4853C39.6443 54.0711 39.6443 55.0208 40.2301 55.6066C40.8159 56.1924 41.7657 56.1924 42.3514 55.6066L50.8367 47.1213L59.322 55.6066C59.9078 56.1924 60.8575 56.1924 61.4433 55.6066C62.0291 55.0208 62.0291 54.0711 61.4433 53.4853L51.8974 43.9393ZM52.3367 80V45H49.3367V80H52.3367Z" fill="black"/>
</svg>
