<svg width="205" height="78" viewBox="0 0 205 78" fill="none" xmlns="http://www.w3.org/2000/svg">
<rect width="205" height="78" fill="white"/>
<path fill-rule="evenodd" clip-rule="evenodd" d="M64.4699 33.2917C64.4724 33.1669 64.4737 33.0419 64.4737 32.9165C64.4737 23.0215 56.5621 15 46.8026 15C37.1179 15 29.2528 22.8992 29.133 32.6897H26C16.6112 32.6897 9 40.4066 9 49.9258C9 59.4451 16.6112 67.1619 26 67.1619H60C69.3888 67.1619 77 59.4451 77 49.9258C77 41.975 71.6903 35.2815 64.4699 33.2917Z" fill="#28CFF3" fill-opacity="0.66"/>
<path d="M89.5227 20.9091H93.7273L103.614 45.0568H103.955L113.841 20.9091H118.045V50H114.75V27.8977H114.466L105.375 50H102.193L93.1023 27.8977H92.8182V50H89.5227V20.9091ZM148.177 20.9091V50H144.768L128.915 27.1591H128.631V50H125.109V20.9091H128.518L144.427 43.8068H144.711V20.9091H148.177ZM164.203 50H155.226V20.9091H164.601C167.423 20.9091 169.838 21.4915 171.845 22.6562C173.853 23.8116 175.392 25.4735 176.462 27.642C177.532 29.8011 178.067 32.3864 178.067 35.3977C178.067 38.428 177.527 41.0369 176.447 43.2244C175.368 45.4025 173.796 47.0786 171.732 48.2528C169.667 49.4176 167.158 50 164.203 50ZM158.749 46.875H163.976C166.381 46.875 168.375 46.411 169.956 45.483C171.537 44.5549 172.716 43.2339 173.493 41.5199C174.269 39.8059 174.658 37.7652 174.658 35.3977C174.658 33.0492 174.274 31.0275 173.507 29.3324C172.74 27.6278 171.594 26.321 170.07 25.4119C168.545 24.4934 166.646 24.0341 164.374 24.0341H158.749V46.875Z" fill="#FFDD64"/>
<path d="M93.233 55.8182H94.7045L98.1648 64.2699H98.2841L101.744 55.8182H103.216V66H102.062V58.2642H101.963L98.7812 66H97.6676L94.4858 58.2642H94.3864V66H93.233V55.8182ZM106.285 68.8636C106.086 68.8636 105.908 68.8471 105.753 68.8139C105.597 68.7841 105.489 68.7543 105.43 68.7244L105.728 67.6903C106.013 67.7633 106.265 67.7898 106.483 67.7699C106.702 67.75 106.896 67.6522 107.065 67.4766C107.238 67.3042 107.395 67.0241 107.537 66.6364L107.756 66.0398L104.932 58.3636H106.205L108.313 64.4489H108.393L110.501 58.3636H111.773L108.532 67.1136C108.386 67.508 108.205 67.8345 107.99 68.093C107.774 68.3549 107.524 68.5488 107.239 68.6747C106.957 68.8007 106.639 68.8636 106.285 68.8636ZM125.492 55.8182V66H124.299L118.751 58.0057H118.651V66H117.419V55.8182H118.612L124.18 63.8324H124.279V55.8182H125.492ZM131.002 66.1591C130.266 66.1591 129.632 65.9967 129.098 65.6719C128.568 65.3438 128.158 64.8864 127.87 64.2997C127.585 63.7098 127.442 63.0237 127.442 62.2415C127.442 61.4593 127.585 60.7699 127.87 60.1733C128.158 59.5734 128.559 59.1061 129.073 58.7713C129.59 58.4332 130.193 58.2642 130.883 58.2642C131.281 58.2642 131.673 58.3305 132.061 58.4631C132.449 58.5956 132.802 58.8111 133.12 59.1094C133.438 59.4044 133.692 59.7955 133.881 60.2827C134.07 60.7699 134.164 61.3698 134.164 62.0824V62.5795H128.278V61.5653H132.971C132.971 61.1345 132.885 60.75 132.712 60.4119C132.543 60.0739 132.301 59.8071 131.987 59.6115C131.675 59.416 131.307 59.3182 130.883 59.3182C130.415 59.3182 130.011 59.4342 129.67 59.6662C129.332 59.8949 129.071 60.1932 128.889 60.5611C128.707 60.929 128.616 61.3234 128.616 61.7443V62.4205C128.616 62.9972 128.715 63.486 128.914 63.8871C129.116 64.2848 129.396 64.5881 129.754 64.7969C130.112 65.0024 130.528 65.1051 131.002 65.1051C131.31 65.1051 131.589 65.062 131.837 64.9759C132.089 64.8864 132.306 64.7538 132.489 64.5781C132.671 64.3991 132.812 64.1771 132.911 63.9119L134.045 64.2301C133.925 64.6146 133.725 64.9527 133.443 65.2443C133.161 65.5327 132.813 65.758 132.399 65.9205C131.985 66.0795 131.519 66.1591 131.002 66.1591ZM139.27 58.3636V59.358H135.312V58.3636H139.27ZM136.466 56.5341H137.639V63.8125C137.639 64.1439 137.687 64.3925 137.783 64.5582C137.883 64.7206 138.009 64.83 138.161 64.8864C138.317 64.9394 138.481 64.9659 138.653 64.9659C138.783 64.9659 138.889 64.9593 138.972 64.946C139.054 64.9295 139.121 64.9162 139.17 64.9062L139.409 65.9602C139.33 65.9901 139.219 66.0199 139.076 66.0497C138.933 66.0829 138.753 66.0994 138.534 66.0994C138.203 66.0994 137.878 66.0282 137.56 65.8857C137.245 65.7431 136.983 65.526 136.774 65.2344C136.569 64.9427 136.466 64.5748 136.466 64.1307V56.5341ZM148.273 66H145.131V55.8182H148.413C149.4 55.8182 150.246 56.022 150.948 56.4297C151.651 56.834 152.189 57.4157 152.564 58.1747C152.938 58.9304 153.126 59.8352 153.126 60.8892C153.126 61.9498 152.937 62.8629 152.559 63.6286C152.181 64.3909 151.631 64.9775 150.908 65.3885C150.186 65.7962 149.308 66 148.273 66ZM146.364 64.9062H148.194C149.036 64.9062 149.733 64.7438 150.287 64.419C150.84 64.0942 151.253 63.6319 151.525 63.032C151.797 62.4321 151.933 61.7178 151.933 60.8892C151.933 60.0672 151.798 59.3596 151.53 58.7663C151.261 58.1697 150.86 57.7124 150.327 57.3942C149.793 57.0727 149.129 56.9119 148.333 56.9119H146.364V64.9062ZM155.035 66V58.3636H156.208V66H155.035ZM155.631 57.0909C155.403 57.0909 155.205 57.013 155.04 56.8572C154.877 56.7015 154.796 56.5142 154.796 56.2955C154.796 56.0767 154.877 55.8894 155.04 55.7337C155.205 55.5779 155.403 55.5 155.631 55.5C155.86 55.5 156.056 55.5779 156.218 55.7337C156.384 55.8894 156.467 56.0767 156.467 56.2955C156.467 56.5142 156.384 56.7015 156.218 56.8572C156.056 57.013 155.86 57.0909 155.631 57.0909ZM163.766 60.0739L162.712 60.3722C162.646 60.1965 162.548 60.0258 162.419 59.8601C162.293 59.6911 162.121 59.5518 161.902 59.4425C161.683 59.3331 161.403 59.2784 161.062 59.2784C160.594 59.2784 160.205 59.3861 159.893 59.6016C159.585 59.8137 159.431 60.0838 159.431 60.4119C159.431 60.7036 159.537 60.9339 159.749 61.103C159.961 61.272 160.293 61.4129 160.743 61.5256L161.877 61.804C162.56 61.9697 163.068 62.2232 163.403 62.5646C163.738 62.9027 163.905 63.3385 163.905 63.8722C163.905 64.3097 163.779 64.7008 163.528 65.0455C163.279 65.3902 162.931 65.6619 162.483 65.8608C162.036 66.0597 161.516 66.1591 160.922 66.1591C160.144 66.1591 159.499 65.9901 158.988 65.652C158.478 65.3139 158.155 64.8201 158.019 64.1705L159.133 63.892C159.239 64.303 159.439 64.6113 159.734 64.8168C160.032 65.0223 160.422 65.125 160.903 65.125C161.449 65.125 161.884 65.009 162.205 64.777C162.53 64.5417 162.692 64.2599 162.692 63.9318C162.692 63.6667 162.599 63.4446 162.414 63.2656C162.228 63.0833 161.943 62.9474 161.559 62.858L160.286 62.5597C159.587 62.3939 159.073 62.1371 158.745 61.7891C158.42 61.4377 158.258 60.9986 158.258 60.4716C158.258 60.0407 158.379 59.6596 158.621 59.3281C158.866 58.9967 159.199 58.7365 159.62 58.5476C160.044 58.3587 160.525 58.2642 161.062 58.2642C161.817 58.2642 162.411 58.4299 162.841 58.7614C163.276 59.0928 163.584 59.5303 163.766 60.0739ZM166.765 63.2159L166.745 61.7642H166.984L170.325 58.3636H171.777L168.217 61.9631H168.118L166.765 63.2159ZM165.672 66V55.8182H166.845V66H165.672ZM170.524 66L167.541 62.2216L168.376 61.4062L172.015 66H170.524Z" fill="#7D7D7D"/>
</svg>
